# Blender v2.71 (sub 0) OBJ File: 'stump_low poly_sell.blend'
# www.blender.org
mtllib stump_low poly_sell.mtl
g Cube
v 1064.229248 -14.926758 -1064.035278
v 1098.722534 -14.926758 1087.418701
v -995.242676 -14.926758 983.938354
v -1075.726685 -14.926758 -1052.537964
v 955.335083 1248.519043 -955.468872
v 930.942627 1248.519043 920.706909
v -840.357056 1248.519043 851.719238
v -897.845581 1248.519043 -886.482605
v 1397.665283 -14.926758 10.342031
v -1328.678101 -14.926758 -24.151724
v 1242.779297 1248.519043 -0.169371
v -1185.290527 1248.519043 -11.667845
v 22.995770 -14.926758 -1248.000122
v -11.497796 -14.926758 1339.218018
v 22.995806 1248.519043 -1012.958191
v -0.000519 1248.519043 1167.742798
v 0.000060 -14.926758 -12.072206
v -0.000119 1248.519043 -12.071907
v 1000.000244 616.796143 -999.999695
v 999.999634 616.796143 1000.000244
v -885.022339 616.796143 896.519653
v -942.510803 616.796143 -931.013489
v 1287.444702 616.796143 -0.573997
v -1229.955811 616.796143 -12.072325
v -11.498060 616.796143 1250.403687
v 22.995792 616.796143 -1057.488892
v -1246.773438 -14.926758 -544.837952
v -1068.892334 1248.519043 -489.397308
v 1332.936157 -14.926758 -579.330872
v 1201.046143 1248.519043 -523.890076
v 0.000124 -14.926758 -660.948608
v 0.000053 1248.519043 -605.994812
v -1113.557739 616.796143 -512.137451
v 1245.711304 616.796143 -546.630310
v 1253.942749 -14.926758 606.369385
v 1110.554321 1248.519043 506.259979
v -1202.202637 -14.926758 485.642181
v -1093.308350 1248.519043 431.523499
v -5.748868 -14.926758 606.659973
v -5.749215 1248.519043 552.048523
v 1155.219971 616.796143 528.457642
v -1137.973511 616.796143 453.721466
v -612.598877 -14.926758 -1362.978149
v -491.872437 -14.926758 1196.647583
v -500.662750 1248.519043 -1150.931763
v -448.923248 1248.519043 1029.935303
v -647.092407 -14.926758 -12.363070
v -592.645325 1248.519043 -11.869876
v -459.758026 616.796143 1109.228882
v -522.995361 616.796143 -1195.462524
v -588.893311 -14.926758 -602.893311
v -534.446167 1248.519043 -547.696045
v -563.733521 -14.926758 540.402161
v -509.286530 1248.519043 486.037109
v 598.393982 1248.519043 -11.869534
v 578.105896 -14.926758 -1293.991211
v 629.845886 -14.926758 1236.890015
v 523.658813 1248.519043 -1185.424927
v 583.528381 1248.519043 1102.699707
v 652.841492 -14.926758 -12.362879
v 597.730896 616.796143 1172.467041
v 545.991394 616.796143 -1229.955688
v 591.732483 -14.926758 -602.893066
v 537.285278 1248.519043 -547.695740
v 589.603577 -14.926758 566.272400
v 535.155884 1248.519043 511.907593
vt 0.735070 0.878302
vt 0.743197 0.952526
vt 0.686265 0.928468
vt 0.662857 0.872109
vt 0.088433 0.801555
vt 0.027987 0.807197
vt 0.054167 0.763707
vt 0.094681 0.745261
vt 0.523037 0.193631
vt 0.438599 0.306801
vt 0.409069 0.268485
vt 0.427375 0.159159
vt 0.190270 0.281281
vt 0.300352 0.340404
vt 0.289572 0.380382
vt 0.156106 0.358162
vt 0.257657 0.595799
vt 0.335897 0.504434
vt 0.368957 0.533896
vt 0.339586 0.640079
vt 0.442314 0.641861
vt 0.437128 0.764712
vt 0.299296 0.749638
vt 0.732224 0.748992
vt 0.725641 0.815783
vt 0.648552 0.814450
vt 0.657816 0.755558
vt 0.085829 0.908546
vt 0.030514 0.902512
vt 0.018467 0.853067
vt 0.079805 0.853088
vt 0.626323 0.338589
vt 0.506250 0.379882
vt 0.475006 0.342215
vt 0.581219 0.258907
vt 0.165736 0.447359
vt 0.294434 0.425451
vt 0.311577 0.465386
vt 0.190758 0.529666
vt 0.865515 0.881228
vt 0.870067 0.957077
vt 0.797529 0.968651
vt 0.798179 0.885796
vt 0.196533 0.798877
vt 0.140549 0.794722
vt 0.141144 0.730998
vt 0.201539 0.737730
vt 0.332278 0.161576
vt 0.369490 0.281690
vt 0.319325 0.300839
vt 0.242920 0.214421
vt 0.592797 0.532797
vt 0.697932 0.587414
vt 0.600990 0.700480
vt 0.525431 0.593634
vt 0.865756 0.748992
vt 0.872668 0.815783
vt 0.798829 0.815816
vt 0.798829 0.742426
vt 0.196753 0.908546
vt 0.141144 0.914580
vt 0.141144 0.853109
vt 0.203078 0.853088
vt 0.557517 0.075135
vt 0.436939 0.042486
vt 0.082095 0.207740
vt 0.036835 0.338939
vt 0.178851 0.694036
vt 0.414156 0.515586
vt 0.745329 0.322493
vt 0.689033 0.174925
vt 0.036835 0.475135
vt 0.093263 0.594998
vt 0.319049 0.048456
vt 0.168134 0.114899
vt 0.492845 0.455250
vt 0.445962 0.474513
vt 0.729543 0.663024
vt 0.677162 0.698136
vt 0.089326 0.970981
vt 0.048217 0.943610
vt 0.630846 0.439670
vt 0.524539 0.422073
vt 0.864215 0.670827
vt 0.801430 0.676028
vt 0.195342 0.974551
vt 0.143524 0.956700
vt 0.740413 0.460318
vt 0.940654 0.885763
vt 0.923098 0.940172
vt 0.256086 0.799462
vt 0.237496 0.756566
vt 0.949588 0.751657
vt 0.956909 0.818351
vt 0.265452 0.906082
vt 0.269771 0.851877
vt 0.919197 0.696835
vt 0.240021 0.950750
vn 0.000000 -1.000000 0.000000
vn 0.000000 1.000000 0.000000
vn 0.929600 0.111900 0.351300
vn -0.429300 0.106900 0.896800
vn -0.918900 0.085500 -0.385200
vn -0.524500 0.276700 -0.805200
vn 0.994400 0.071700 -0.077600
vn -0.977500 0.072500 0.197800
vn 0.118200 0.119200 0.985800
vn -0.195000 0.188900 -0.962400
vn 0.934200 0.185800 0.304500
vn -0.410400 0.170200 0.895900
vn -0.912200 0.233500 -0.336800
vn -0.541500 0.087700 -0.836100
vn 0.983600 0.155300 -0.092200
vn -0.967800 0.128200 0.216700
vn 0.141600 0.122700 0.982300
vn -0.318700 0.061000 -0.945900
vn -0.970200 0.072800 -0.231000
vn 0.870900 0.087300 -0.483600
vn -0.964900 0.183800 -0.187500
vn 0.868100 0.140500 -0.476100
vn 0.966300 0.072600 0.246800
vn -0.859400 0.087500 0.503800
vn 0.956300 0.174600 0.234600
vn -0.886400 0.163300 0.433200
vn -0.294500 0.126600 0.947200
vn 0.202500 0.253700 -0.945900
vn -0.289400 0.139400 0.947000
vn 0.249300 0.063700 -0.966300
vn 0.423600 0.133600 0.895900
vn 0.436100 0.123600 -0.891400
vn 0.342900 0.147000 0.927800
vn 0.459100 0.086700 -0.884100
usemtl stump
s off
f 53/1/1 44/2/1 3/3/1 37/4/1
f 54/5/2 38/6/2 7/7/2 46/8/2
f 41/9/3 36/10/3 6/11/3 20/12/3
f 49/13/4 46/14/4 7/15/4 21/16/4
f 33/17/5 28/18/5 8/19/5 22/20/5
f 50/21/6 43/22/6 4/23/6 22/20/6
f 51/24/1 47/25/1 10/26/1 27/27/1
f 52/28/2 28/29/2 12/30/2 48/31/2
f 34/32/7 30/33/7 11/34/7 23/35/7
f 42/36/8 38/37/8 12/38/8 24/39/8
f 65/40/1 57/41/1 14/42/1 39/43/1
f 66/44/2 40/45/2 16/46/2 59/47/2
f 61/48/9 59/49/9 16/50/9 25/51/9
f 62/52/10 56/53/10 13/54/10 26/55/10
f 63/56/1 60/57/1 17/58/1 31/59/1
f 64/60/2 32/61/2 18/62/2 55/63/2
f 35/64/11 41/9/11 20/12/11 2/65/11
f 44/66/12 49/13/12 21/16/12 3/67/12
f 27/68/13 33/17/13 22/20/13 4/23/13
f 45/69/14 50/21/14 22/20/14 8/19/14
f 29/70/15 34/32/15 23/35/15 9/71/15
f 37/72/16 42/36/16 24/39/16 10/73/16
f 57/74/17 61/48/17 25/51/17 14/75/17
f 58/76/18 62/52/18 26/55/18 15/77/18
f 24/39/19 12/38/19 28/18/19 33/17/19
f 43/78/1 51/24/1 27/27/1 4/79/1
f 45/80/2 8/81/2 28/29/2 52/28/2
f 19/82/20 5/83/20 30/33/20 34/32/20
f 56/84/1 63/56/1 31/59/1 13/85/1
f 58/86/2 15/87/2 32/61/2 64/60/2
f 10/73/21 24/39/21 33/17/21 27/68/21
f 1/88/22 19/82/22 34/32/22 29/70/22
f 47/25/1 53/1/1 37/4/1 10/26/1
f 48/31/2 12/30/2 38/6/2 54/5/2
f 23/35/23 11/34/23 36/10/23 41/9/23
f 21/16/24 7/15/24 38/37/24 42/36/24
f 60/57/1 65/40/1 39/43/1 17/58/1
f 55/63/2 18/62/2 40/45/2 66/44/2
f 9/71/25 23/35/25 41/9/25 35/64/25
f 3/67/26 21/16/26 42/36/26 37/72/26
f 39/43/1 14/42/1 44/2/1 53/1/1
f 40/45/2 54/5/2 46/8/2 16/46/2
f 25/51/27 16/50/27 46/14/27 49/13/27
f 26/55/28 13/54/28 43/22/28 50/21/28
f 31/59/1 17/58/1 47/25/1 51/24/1
f 32/61/2 52/28/2 48/31/2 18/62/2
f 14/75/29 25/51/29 49/13/29 44/66/29
f 15/77/30 26/55/30 50/21/30 45/69/30
f 13/85/1 31/59/1 51/24/1 43/78/1
f 15/87/2 45/80/2 52/28/2 32/61/2
f 17/58/1 39/43/1 53/1/1 47/25/1
f 18/62/2 48/31/2 54/5/2 40/45/2
f 35/89/1 2/90/1 57/41/1 65/40/1
f 36/91/2 66/44/2 59/47/2 6/92/2
f 20/12/31 6/11/31 59/49/31 61/48/31
f 19/82/32 1/88/32 56/53/32 62/52/32
f 29/93/1 9/94/1 60/57/1 63/56/1
f 30/95/2 64/60/2 55/63/2 11/96/2
f 2/65/33 20/12/33 61/48/33 57/74/33
f 5/83/34 19/82/34 62/52/34 58/76/34
f 1/97/1 29/93/1 63/56/1 56/84/1
f 5/98/2 58/86/2 64/60/2 30/95/2
f 9/94/1 35/89/1 65/40/1 60/57/1
f 11/96/2 55/63/2 66/44/2 36/91/2
